<?xml version="1.0" standalone="no"?>
<!DOCTYPE svg PUBLIC "-//W3C//DTD SVG 20010904//EN"
 "http://www.w3.org/TR/2001/REC-SVG-20010904/DTD/svg10.dtd">
<svg version="1.0" xmlns="http://www.w3.org/2000/svg"
 width="2404.000000pt" height="2404.000000pt" viewBox="0 0 2404.000000 2404.000000"
 preserveAspectRatio="xMidYMid meet">
<metadata>
Created by potrace 1.14, written by Peter Selinger 2001-2017
</metadata>
<g transform="translate(0.000000,2404.000000) scale(0.100000,-0.100000)"
fill="#000000" stroke="none">
<path d="M3630 12960 l0 -140 653 -2 652 -3 0 -335 0 -335 -582 -3 -583 -2 0
-140 0 -140 585 0 585 0 -2 -317 -3 -318 -652 -3 -653 -2 0 -140 0 -140 795 0
795 0 0 1080 0 1080 -795 0 -795 0 0 -140z"/>
<path d="M6968 13062 c9 -21 238 -507 507 -1080 l490 -1042 144 3 143 2 504
1070 c277 588 504 1073 504 1077 0 5 -81 7 -180 6 l-180 -3 -122 -257 -121
-258 -540 -2 c-349 -2 -544 1 -553 7 -7 6 -65 124 -130 263 l-119 252 -182 0
-182 0 17 -38z m1513 -854 c-126 -271 -364 -774 -369 -780 -5 -5 -387 790
-410 853 -2 5 163 9 407 9 l410 0 -38 -82z"/>
<path d="M11196 13088 c4 -7 131 -171 281 -365 150 -194 273 -356 273 -360 0
-5 -21 -16 -47 -25 -134 -48 -289 -179 -355 -298 -67 -121 -73 -153 -73 -365
0 -174 2 -196 24 -263 76 -231 300 -409 577 -457 70 -12 188 -15 600 -15 l514
0 0 1080 0 1080 -140 0 -140 0 0 -350 0 -350 -312 0 -313 1 -270 349 -270 349
-178 1 c-140 0 -177 -3 -171 -12z m1514 -1418 l0 -450 -352 0 c-403 1 -470 8
-584 65 -90 44 -157 108 -192 183 -26 54 -27 65 -27 207 0 138 2 154 25 200
33 68 112 143 192 182 115 56 163 61 571 62 l367 1 0 -450z"/>
<path d="M15530 12160 l0 -940 -355 0 -355 0 0 -140 0 -140 870 0 870 0 0 140
0 140 -370 0 -370 0 0 940 0 940 -145 0 -145 0 0 -940z"/>
<path d="M18570 12020 l0 -1080 145 0 145 0 0 480 0 480 633 -2 632 -3 3 -477
2 -478 140 0 140 0 0 1080 0 1080 -140 0 -140 0 0 -460 0 -460 -635 0 -635 0
0 460 0 460 -145 0 -145 0 0 -1080z"/>
</g>
</svg>
