<?xml version="1.0" encoding="UTF-8"?>
<svg id="Layer_1" data-name="Layer 1" xmlns="http://www.w3.org/2000/svg" version="1.1" viewBox="0 0 402.6 51.74">
  <defs>
    <style>
      .cls-1 {
        fill: #000;
      }

      .cls-1, .cls-2, .cls-3 {
        stroke-width: 0px;
      }

      .cls-2 {
        fill: none;
      }

      .cls-3 {
        fill: #fff;
      }
    </style>
  </defs>
  <circle class="cls-3" cx="-853.74" cy="16.97" r="287.77"/>
  <circle class="cls-1" cx="1350.33" cy="737.22" r="286.52"/>
  <g>
    <rect class="cls-3" x="1148.47" y="711.35" width="6.79" height="51.74"/>
    <polygon class="cls-2" points="1237.99 763.08 1276.08 763.08 1257.03 722.71 1237.99 763.08"/>
    <rect class="cls-3" x="1435.14" y="711.35" width="6.79" height="51.74"/>
    <rect class="cls-3" x="1435.57" y="693.96" width="6.79" height="41.56" transform="translate(2153.7 -724.22) rotate(90)"/>
    <rect class="cls-3" x="1508.08" y="711.35" width="6.79" height="51.74"/>
    <rect class="cls-3" x="1545.4" y="711.35" width="6.79" height="51.74"/>
    <rect class="cls-3" x="1527.16" y="716.86" width="6.79" height="41.56" transform="translate(2268.2 -792.92) rotate(90)"/>
    <rect class="cls-3" x="1164.16" y="740.61" width="6.79" height="38.17" transform="translate(407.86 1927.25) rotate(-90)"/>
    <rect class="cls-3" x="1164.16" y="695.66" width="6.79" height="38.17" transform="translate(452.81 1882.29) rotate(-90)"/>
    <rect class="cls-3" x="1162.47" y="719.4" width="6.79" height="34.77" transform="translate(429.07 1902.65) rotate(-90)"/>
    <rect class="cls-3" x="1253.64" y="729.73" width="6.79" height="34.77" transform="translate(509.92 2004.15) rotate(-90)"/>
    <polygon class="cls-3" points="1260.42 711.35 1253.64 711.35 1229.24 763.08 1237.99 763.08 1257.03 722.71 1276.08 763.08 1284.83 763.08 1260.42 711.35"/>
    <path class="cls-3" d="M1361.29,745.34c6.83-2.22,11.71-7.77,11.71-14.24v-4.48c0-8.4-8.22-15.27-18.27-15.27h-23.07v51.74h6.79v-16.72h15.05l13,16.72h8.59l-13.8-17.74ZM1348.22,739.58h-9.77v-21.45h16.28c6.23,0,11.48,3.89,11.48,8.49v4.48c0,4.1-4.19,7.63-9.51,8.35-.64.09-1.3.14-1.97.14h-6.51Z"/>
  </g>
  <g>
    <rect class="cls-1" x="-690.6" y="0" width="6.79" height="51.74"/>
    <rect class="cls-1" x="-944.78" y="0" width="6.79" height="51.74" transform="translate(-1882.77 51.74) rotate(-180)"/>
    <rect class="cls-1" x="-945.2" y="-17.39" width="6.79" height="41.56" transform="translate(-938.42 945.2) rotate(90)"/>
    <rect class="cls-1" x="-1017.72" y="0" width="6.79" height="51.74" transform="translate(-2028.65 51.74) rotate(-180)"/>
    <rect class="cls-1" x="-1055.04" y="0" width="6.79" height="51.74" transform="translate(-2103.28 51.74) rotate(-180)"/>
    <rect class="cls-1" x="-1036.8" y="5.51" width="6.79" height="41.56" transform="translate(-1007.12 1059.7) rotate(90)"/>
    <rect class="cls-1" x="-674.91" y="29.26" width="6.79" height="38.17" transform="translate(-719.86 -623.18) rotate(-90)"/>
    <rect class="cls-1" x="-674.91" y="-15.69" width="6.79" height="38.17" transform="translate(-674.91 -668.13) rotate(-90)"/>
    <rect class="cls-1" x="-676.61" y="8.06" width="6.79" height="34.77" transform="translate(-698.66 -647.77) rotate(-90)"/>
    <rect class="cls-1" x="-763.28" y="18.38" width="6.79" height="34.77" transform="translate(-795.65 -724.11) rotate(-90)"/>
    <polygon class="cls-1" points="-763.27 0 -756.49 0 -732.09 51.74 -740.84 51.74 -759.88 11.36 -778.93 51.74 -787.68 51.74 -763.27 0"/>
    <path class="cls-1" d="M-847.49,33.99c6.83-2.22,11.71-7.77,11.71-14.24v-4.48C-835.78,6.87-844,0-854.05,0h-23.07v51.74h6.79v-16.72h15.05l13,16.72h8.59l-13.8-17.74ZM-860.56,28.24h-9.77V6.79h16.28c6.23,0,11.48,3.89,11.48,8.49v4.48c0,4.1-4.19,7.63-9.51,8.35-.64.09-1.3.14-1.97.14h-6.51Z"/>
  </g>
  <g>
    <rect class="cls-1" x="364.43" y="0" width="6.79" height="51.74"/>
    <rect class="cls-1" x="110.26" y="0" width="6.79" height="51.74" transform="translate(227.3 51.74) rotate(-180)"/>
    <rect class="cls-1" x="109.83" y="-17.39" width="6.79" height="41.56" transform="translate(116.62 -109.83) rotate(90)"/>
    <rect class="cls-1" x="37.32" y="0" width="6.79" height="51.74" transform="translate(81.42 51.74) rotate(-180)"/>
    <rect class="cls-1" x="0" y="0" width="6.79" height="51.74" transform="translate(6.79 51.74) rotate(-180)"/>
    <rect class="cls-1" x="18.23" y="5.51" width="6.79" height="41.56" transform="translate(47.92 4.66) rotate(90)"/>
    <rect class="cls-1" x="380.12" y="29.26" width="6.79" height="38.17" transform="translate(335.17 431.86) rotate(-90)"/>
    <rect class="cls-1" x="380.12" y="-15.69" width="6.79" height="38.17" transform="translate(380.12 386.91) rotate(-90)"/>
    <rect class="cls-1" x="378.43" y="8.06" width="6.79" height="34.77" transform="translate(356.37 407.26) rotate(-90)"/>
    <rect class="cls-1" x="291.76" y="18.38" width="6.79" height="34.77" transform="translate(259.38 330.92) rotate(-90)"/>
    <polygon class="cls-1" points="291.76 0 298.54 0 322.95 51.74 314.2 51.74 295.15 11.36 276.11 51.74 267.36 51.74 291.76 0"/>
    <path class="cls-1" d="M207.55,33.99c6.83-2.22,11.71-7.77,11.71-14.24v-4.48C219.26,6.87,211.04,0,200.99,0h-23.07v51.74h6.79v-16.72h15.05l13,16.72h8.59l-13.8-17.74ZM194.48,28.24h-9.77V6.79h16.28c6.23,0,11.48,3.89,11.48,8.49v4.48c0,4.1-4.19,7.63-9.51,8.35-.64.09-1.3.14-1.97.14h-6.51Z"/>
  </g>
</svg>